Title: 
Priest's Children Aka Svecenikova Djeca

Country:
Croatia/2013

Language:
Croatian

Subtitles: 
English (.srt)

Genre: 
Comedy/Drama  

Director:
Vinko Bresan

Writer:
Mate Matisic

Stars:
Kresimir Mikic, Niksa Butijer, Marija Skaricic 

Synopsis:
Don Fabijan is a young priest who comes to serve on an unnamed small island in the Adriatic. In order to help increase birth rate on the island, he decides to pierce condoms before they are sold. He therefore teams up with the newsagent Petar and the pharmacist Marin. After they abolish all forms of birth control on the entire island, the consequences become more and more complicated.

Imdb: 
http://www.imdb.com/title/tt2395421/

Trailer: 
http://www.cineplexx.hr/sadrzaj/filmovi/detajlfilma.aspx?filmid=37432


Media Info:

General
Complete name                            : Priests.Children.2013.DVDRip.XviD.AC3.HORiZON-ArtSubs
Format                                   : AVI
Format/Info                              : Audio Video Interleave
File size                                : 1.45 GiB
Duration                                 : 1h 32mn
Overall bit rate                         : 2 240 Kbps

Video
ID                                       : 0
Format                                   : MPEG-4 Visual
Format profile                           : Advanced Simple@L5
Format settings, BVOP                    : 2
Format settings, QPel                    : No
Format settings, GMC                     : No warppoints
Format settings, Matrix                  : Default (MPEG)
Codec ID                                 : XVID
Codec ID/Hint                            : XviD
Duration                                 : 1h 32mn
Bit rate                                 : 2 005 Kbps
Width                                    : 720 pixels
Height                                   : 304 pixels
Display aspect ratio                     : 2.35:1
Frame rate                               : 25.000 fps
Color space                              : YUV
Chroma subsampling                       : 4:2:0
Bit depth                                : 8 bits
Scan type                                : Progressive
Compression mode                         : Lossy
Bits/(Pixel*Frame)                       : 0.366
Stream size                              : 1.29 GiB (90%)
Writing library                          : XviD 1.2.1 (UTC 2008-12-04)

Audio
ID                                       : 1
Format                                   : AC-3
Format/Info                              : Audio Coding 3
Mode extension                           : CM (complete main)
Format settings, Endianness              : Big
Codec ID                                 : 2000
Duration                                 : 1h 32mn
Source duration                          : 1h 32mn
Bit rate mode                            : Constant
Bit rate                                 : 224 Kbps
Channel(s)                               : 2 channels
Channel positions                        : Front: L R
Sampling rate                            : 48.0 KHz
Bit depth                                : 16 bits
Compression mode                         : Lossy
Stream size                              : 148 MiB (10%)
Alignment                                : Aligned on interleaves
Interleave, duration                     : 32 ms (0.80 video frame)

